<svg width="33" height="33" viewBox="0 0 33 33" fill="none" xmlns="http://www.w3.org/2000/svg">
<rect width="32" height="32" transform="translate(0.36377 0.5)" fill="white"/>
<path d="M11.1875 5.70357C10.7148 4.97218 9.59766 4.75706 8.86719 5.31636C6.50391 7.20938 5 10.0489 5 13.2326H16L11.1875 5.70357ZM26.3125 9.10239H24.25C22.7031 9.10239 21.5 10.3501 21.5 11.8559V14.6094H5C5 16.8035 5.98828 18.7826 7.57812 20.2454C6.07422 20.6326 5 21.9663 5 23.5582C5 25.4942 6.50391 27 8.4375 27C10.3281 27 11.875 25.4942 11.875 23.5582C11.875 23.214 11.7891 22.8268 11.6602 22.4826C12.6055 22.7407 13.5938 22.8698 14.625 22.8698C15.6133 22.8698 16.6016 22.7407 17.5469 22.4826C17.418 22.8268 17.375 23.214 17.375 23.5582C17.375 25.4942 18.8789 27 20.8125 27C22.7031 27 24.25 25.4942 24.25 23.5582C24.25 21.9663 23.1328 20.6326 21.6289 20.2454C23.2617 18.7826 24.25 16.8035 24.25 14.6094V11.8559H26.3125C26.6562 11.8559 27 11.5547 27 11.1675V9.79076C27 9.44658 26.6562 9.10239 26.3125 9.10239ZM8.4375 24.9349C7.66406 24.9349 7.0625 24.3326 7.0625 23.5582C7.0625 22.8268 7.66406 22.1814 8.4375 22.1814C9.16797 22.1814 9.8125 22.8268 9.8125 23.5582C9.8125 24.3326 9.16797 24.9349 8.4375 24.9349ZM22.1875 23.5582C22.1875 24.3326 21.543 24.9349 20.8125 24.9349C20.0391 24.9349 19.4375 24.3326 19.4375 23.5582C19.4375 22.8268 20.0391 22.1814 20.8125 22.1814C21.543 22.1814 22.1875 22.8268 22.1875 23.5582Z" fill="#474C5A"/>
</svg>
