<svg width="33" height="33" viewBox="0 0 33 33" fill="none" xmlns="http://www.w3.org/2000/svg">
<rect width="32" height="32" transform="translate(0.90918 0.5)" fill="white"/>
<path d="M28.8381 4.26254C28.7221 4.09425 28.5578 4 28.3857 4H19.6144C19.4422 4 19.278 4.09425 19.162 4.26254C19.0454 4.43003 18.9878 4.65448 19.0022 4.88189L19.0741 6H28.926L28.9978 4.88189C29.0123 4.65448 28.9548 4.43009 28.8381 4.26254Z" fill="#474C5A"/>
<path d="M20.2738 23H27.727L29 7H19L20.2738 23Z" fill="#474C5A"/>
<path d="M20 25.8042C20 27.0169 20.7712 28 21.7226 28H26.2774C27.2288 28 28 27.0169 28 25.8042V23H20V25.8042Z" fill="#474C5A"/>
<path d="M17.4682 22H9.30461L6.02245 23.5355C6.01518 23.5388 6.00725 23.5405 6 23.544V25.0786C6 26.6925 7.26821 28 8.8319 28H15.1681C16.7317 28 18 26.6925 18 25.0786V22.5486C18 22.2456 17.762 22 17.4682 22Z" fill="#474C5A"/>
<path d="M14.5431 20L11 21H15.5817C15.7275 21 15.8623 20.9523 15.9389 20.8754C16.0143 20.7974 16.0204 20.7014 15.9544 20.6202C15.7258 20.3434 15.3234 20.1384 14.8427 20.0529L14.5431 20Z" fill="#474C5A"/>
<path d="M14.9668 15.8416C15.0153 15.6738 15.0105 15.4886 14.9534 15.3256L14.8143 14.931C14.6092 14.3461 14.1634 14 13.6972 14C13.5282 14 13.356 14.0466 13.1919 14.1417L4.71972 19.111C4.10334 19.4724 3.83032 20.4125 4.1095 21.2097L4.24803 21.6054C4.30522 21.7673 4.4099 21.8949 4.53916 21.9577C4.59766 21.9858 4.66026 22 4.7221 22C4.79645 22 4.87009 21.98 4.93809 21.9403L14.6939 16.2183C14.8198 16.1444 14.9175 16.0096 14.9668 15.8416Z" fill="#474C5A"/>
</svg>
