<svg width="33" height="33" viewBox="0 0 33 33" fill="none" xmlns="http://www.w3.org/2000/svg">
<rect width="32" height="32" transform="translate(0.818359 0.5)" fill="white"/>
<path d="M9.99863 19.5221C9.99863 16.963 9.99632 14.4108 9.9917 11.8654C9.9917 11.4244 10.1651 11.1625 10.5743 10.9971C11.2333 10.7352 11.8853 10.432 12.5511 10.1701C12.8216 10.0598 12.9326 9.90819 12.9118 9.61184C12.891 9.3155 12.9049 9.25347 13.2656 9.25347C13.7788 9.25347 14.2852 9.26037 14.7984 9.24658C14.9441 9.24658 15.0065 9.28793 14.9788 9.43266C14.8817 9.8944 15.1106 10.1012 15.5267 10.2459C16.1371 10.4664 16.7267 10.7559 17.3301 11.004C17.7186 11.1625 17.885 11.4244 17.885 11.8379V27.1513C17.885 27.8404 17.4897 28.2332 16.796 28.2332H11.0876C10.3871 28.2332 9.99863 27.8404 9.99863 27.1513V19.5221Z" fill="#474C5A"/>
<path d="M28.4377 22.3739V27.3132C28.4377 27.922 28.135 28.2333 27.5227 28.2333H20.2929C19.6875 28.2333 19.378 27.922 19.378 27.3132C19.378 24.0618 19.3848 20.8105 19.378 17.5591C19.3763 17.127 19.4752 16.7006 19.6669 16.3139C20.6162 14.4138 21.5609 12.5137 22.501 10.6136C22.5698 10.4683 22.6455 10.4199 22.8106 10.4199C23.5489 10.4291 24.285 10.4291 25.0188 10.4199C25.1632 10.4199 25.2458 10.4545 25.3146 10.5929C26.2593 12.5114 27.2109 14.4276 28.1694 16.3416C28.3532 16.7108 28.4475 17.1185 28.4445 17.5314C28.4399 19.1502 28.4377 20.7643 28.4377 22.3739Z" fill="#474C5A"/>
<path d="M22.081 4.6668H24.2398C24.3526 4.66035 24.464 4.69462 24.5532 4.76324L25.7998 5.68631C25.9112 5.76898 25.9808 5.84475 25.953 5.98252C25.9494 6.00766 25.9494 6.03316 25.953 6.0583C26.134 6.81604 25.6396 7.33269 25.2705 7.89066C25.2217 7.97333 25.1521 7.96644 25.0685 7.96644H22.5963C22.5104 7.96482 22.4264 7.94108 22.3526 7.89755L19.8247 6.47161C19.7834 6.45204 19.7493 6.42038 19.7269 6.38095C19.7044 6.34151 19.6948 6.29621 19.6993 6.25118C19.7063 5.77587 19.7063 5.30744 19.6993 4.83213C19.6924 4.6668 19.762 4.65991 19.8943 4.65991L22.081 4.6668Z" fill="#474C5A"/>
<path d="M13.9917 8.81991H12.3324C12.1941 8.81991 12.125 8.80602 12.125 8.62546C12.1388 7.72956 12.125 6.82672 12.1319 5.93083C12.1337 5.59312 12.2686 5.26988 12.5069 5.03173C12.7453 4.79358 13.0678 4.65991 13.404 4.65991H14.5931C14.9239 4.66168 15.2409 4.79352 15.4761 5.02719C15.7113 5.26085 15.846 5.57775 15.8514 5.91C15.8652 6.81978 15.8514 7.72956 15.8583 8.63934C15.8583 8.79213 15.803 8.81991 15.6717 8.81991H13.9917Z" fill="#474C5A"/>
<path d="M5.6928 28.2331C5.41997 28.2262 5.24946 27.9844 5.31085 27.6875C5.54957 26.5341 5.79511 25.3877 6.03383 24.2343C6.63404 21.3475 7.23653 18.4584 7.84129 15.567C7.85687 15.5273 7.86608 15.4853 7.86857 15.4427C7.87539 15.2286 7.96406 15.1802 8.16186 15.2493C8.35966 15.3184 8.59156 15.2631 8.68023 15.4012C8.76889 15.5394 8.64612 15.7397 8.6052 15.9123C7.77763 19.8765 6.94779 23.843 6.11568 27.8118C6.05429 28.1018 5.91106 28.24 5.6928 28.2331Z" fill="#474C5A"/>
<path d="M10.2952 8.2085C10.0921 9.1698 9.88913 10.1381 9.67911 11.1063C9.42009 12.3254 9.16107 13.5514 8.90905 14.7704C8.86704 14.9655 8.82504 15.056 8.59402 14.9794C8.36461 14.8945 8.12413 14.8429 7.87996 14.8261C7.60694 14.8122 7.62794 14.6798 7.66995 14.4918C7.89397 13.4538 8.11098 12.4229 8.335 11.385C8.55902 10.347 8.81804 9.1489 9.04906 8.02739C9.08406 7.86021 9.14007 7.83931 9.28708 7.87414L10.1762 8.06918C10.2532 8.08311 10.3512 8.08311 10.2952 8.2085Z" fill="#474C5A"/>
<path d="M7.04612 12.4881C7.19456 12.5458 7.26296 12.6137 7.2318 12.736C7.20064 12.8584 7.09552 12.9255 6.95771 12.8951L5.82437 12.6535C5.70557 12.6314 5.56827 12.5484 5.53053 12.7888C5.49278 13.0291 5.53002 13.0304 5.72052 13.0613C6.09517 13.1203 6.45944 13.2201 6.83486 13.2946C6.99724 13.3207 7.10008 13.3962 7.06487 13.5621C7.02967 13.728 6.89338 13.7285 6.75558 13.6981C6.37661 13.6146 5.99562 13.5527 5.62223 13.4565C5.43377 13.4038 5.394 13.477 5.35524 13.6338C5.31648 13.7906 5.37779 13.8403 5.52471 13.8671L6.95823 14.1653C7.2303 14.2169 7.36835 14.1265 7.42636 13.8572C7.79846 12.101 8.16702 10.3356 8.53912 8.57936C8.60194 8.28197 8.50872 8.15025 8.20499 8.08464C7.72901 7.98104 7.24467 7.89644 6.77071 7.77105C6.54146 7.70798 6.58275 7.85465 6.54805 7.96788C6.51334 8.08111 6.53893 8.1604 6.68585 8.18725C7.07672 8.26096 7.45923 8.35367 7.8501 8.42738C8.00969 8.4598 8.11811 8.52263 8.08011 8.69488C8.04212 8.86714 7.90862 8.86131 7.77081 8.83092C7.41085 8.75569 7.04531 8.69312 6.68459 8.60244C6.51867 8.56723 6.41177 8.53531 6.36769 8.77292C6.32362 9.01053 6.4865 8.98393 6.60885 9.01509L7.64796 9.2304C7.80122 9.26003 7.95523 9.30512 7.90609 9.50271C7.85695 9.7003 7.72548 9.67269 7.57501 9.63672L6.5169 9.41305C6.37631 9.38899 6.24889 9.31781 6.20203 9.56175C6.15517 9.80569 6.26612 9.79404 6.42571 9.82646C6.80392 9.8946 7.18288 9.97819 7.56184 10.0618C7.68419 10.0929 7.76804 10.1601 7.74398 10.3007C7.71992 10.4412 7.60415 10.481 7.46711 10.4661L7.34475 10.4349C6.97846 10.3569 6.59747 10.2951 6.23674 10.2044C6.02016 10.1469 6.07133 10.3055 6.03587 10.4033C6.0004 10.501 5.9923 10.5882 6.15467 10.6143C6.56099 10.6872 6.95617 10.7855 7.36604 10.8676C7.52841 10.8937 7.60112 10.9861 7.56793 11.1303C7.53475 11.2744 7.41823 11.2987 7.28042 11.2683C6.89512 11.182 6.50147 11.1146 6.11896 11.0219C5.95582 10.9803 5.89908 11.0234 5.86666 11.183C5.83424 11.3426 5.87173 11.412 6.0341 11.4381C6.40597 11.5034 6.77582 11.5906 7.1449 11.6622C7.30449 11.6947 7.44939 11.7433 7.40025 11.9409C7.35111 12.1385 7.20975 12.099 7.06562 12.0658C6.67754 11.9857 6.28388 11.9183 5.90137 11.8256C5.71645 11.7821 5.72532 11.8994 5.70252 12.0027C5.67972 12.1061 5.64781 12.213 5.81651 12.2418C6.24462 12.3168 6.66437 12.4108 7.04612 12.4881Z" fill="#474C5A"/>
<path d="M23.884 10.0992C23.5364 10.0992 23.1889 10.0921 22.8413 10.0992C22.7186 10.1063 22.6846 10.0637 22.6846 9.93575C22.6914 9.47373 22.6914 9.01881 22.6846 8.55679C22.6846 8.42885 22.7186 8.39331 22.8413 8.39331C23.5501 8.40042 24.2656 8.40042 24.9812 8.39331C25.1038 8.39331 25.1379 8.42885 25.1379 8.55679C25.1311 9.01881 25.1311 9.47373 25.1379 9.93575C25.1379 10.0637 25.1038 10.0992 24.9812 10.0992C24.6132 10.0921 24.252 10.0992 23.884 10.0992Z" fill="#474C5A"/>
<path d="M19.3782 5.31342C19.3782 5.93991 19.3782 5.93287 18.76 5.93991C18.5682 5.93991 18.5184 5.89768 18.5255 5.70762C18.5327 5.51755 18.5327 5.11632 18.5255 4.81363C18.5255 4.701 18.5611 4.65173 18.6748 4.6658H18.7032C19.3782 4.64469 19.3782 4.64469 19.3782 5.31342Z" fill="#474C5A"/>
<path d="M20.2314 9.64555L20.8791 7.66683C20.8994 7.61167 20.9061 7.48068 21.0141 7.57031C21.122 7.65993 21.3582 7.66683 21.2839 7.81851C20.9736 8.4528 20.6228 9.05952 20.2922 9.67313L20.2314 9.64555Z" fill="#474C5A"/>
</svg>
