<svg width="35" height="33" viewBox="0 0 35 33" fill="none" xmlns="http://www.w3.org/2000/svg">
<path d="M22.695 19.1976H5.80043C5.52178 19.1976 5.2959 19.4235 5.2959 19.7022V28.0917C5.2959 28.3704 5.52178 28.5963 5.80043 28.5963H22.695C22.9736 28.5963 23.1995 28.3704 23.1995 28.0917V19.7022C23.1995 19.4235 22.9736 19.1976 22.695 19.1976Z" fill="#474C5A"/>
<path d="M30.8365 13.466C30.6174 13.985 30.2109 14.1407 29.6689 14.132C28.2504 14.1118 26.832 14.1032 25.4135 14.1349C24.5948 14.1522 24.1998 13.6794 24.2719 13.0105C24.2776 12.9529 24.2661 12.8952 24.2632 12.8202H22.9745C22.9687 12.9038 22.9601 12.9932 22.9572 13.0826C22.9543 13.5352 22.9601 13.9879 22.9543 14.4405C22.9399 15.8272 22.0173 16.7441 20.6248 16.7441C18.0532 16.7479 15.4815 16.7479 12.9099 16.7441C11.1916 16.7441 9.47619 16.7469 7.7579 16.7441C6.8238 16.7412 6.0944 16.352 5.69366 15.4957C5.54374 15.1757 5.47743 14.7922 5.4659 14.4347C5.43707 13.3767 5.45436 12.3157 5.45436 11.2576C5.45436 10.7589 5.58987 10.6262 6.09728 10.6262H22.297C22.8419 10.6262 22.9514 10.7387 22.9514 11.2922V11.9178H24.2661V11.5834C24.2719 10.9924 24.6063 10.6407 25.2002 10.6291C25.722 10.6176 26.2439 10.6262 26.7628 10.6262C27.7546 10.6262 28.7463 10.6407 29.7352 10.6205C30.2714 10.6089 30.6405 10.8021 30.825 11.3153C30.8365 12.0303 30.8365 12.7482 30.8365 13.466ZM22.0692 11.5229H6.33081C6.33081 12.5089 6.32792 13.4718 6.33081 14.4347C6.33369 15.3256 6.87858 15.8734 7.76943 15.8734C12.0651 15.8753 16.3609 15.8753 20.6566 15.8734C21.5359 15.8734 22.0721 15.3342 22.0779 14.4492C22.0837 13.5641 22.0779 12.6386 22.0779 11.7333C22.0791 11.6631 22.0762 11.5928 22.0692 11.5229ZM25.1656 11.5085V13.2354H29.9428V11.5085H25.1656ZM22.173 16.0262H6.25008C6.22763 16.0262 6.20606 16.0175 6.18992 16.0019C6.17378 15.9863 6.16434 15.965 6.16359 15.9426V11.1798C6.16434 11.1574 6.17378 11.1361 6.18992 11.1205C6.20606 11.1049 6.22763 11.0962 6.25008 11.0962H22.173C22.1952 11.0962 22.2165 11.105 22.2321 11.1207C22.2478 11.1363 22.2566 11.1576 22.2566 11.1798V15.9426C22.2566 15.9647 22.2478 15.986 22.2321 16.0017C22.2165 16.0174 22.1952 16.0262 22.173 16.0262Z" fill="#474C5A"/>
<path d="M14.2012 29H5.25519C4.71318 29 4.58633 28.8761 4.58633 28.3427C4.58633 25.8326 4.58633 23.3205 4.58633 20.8065C4.58633 19.6908 5.18888 18.872 6.23254 18.5837C6.45558 18.5256 6.68536 18.4975 6.91582 18.5001C11.7766 18.4943 16.6384 18.4933 21.5011 18.4972C22.6456 18.4972 23.4759 19.1055 23.7614 20.1665C23.819 20.3856 23.8334 20.622 23.8334 20.8497C23.8392 23.3522 23.8402 25.8556 23.8363 28.36C23.8363 28.8674 23.7037 29 23.1992 29H14.2012ZM22.9426 28.1121V22.8938H5.47431V28.1121H22.9426ZM5.47142 21.977H22.9339C22.9339 21.4494 22.9801 20.9362 22.9224 20.4317C22.8474 19.7744 22.2506 19.3679 21.478 19.3679H6.95042C6.83085 19.3669 6.71137 19.3746 6.59292 19.3909C5.97883 19.4861 5.5262 19.93 5.47719 20.5499C5.44259 21.0169 5.47142 21.4869 5.47142 21.977ZM23.8305 22.8938H4.58057V21.977H23.8305V22.8938Z" fill="#474C5A"/>
<path d="M14.9985 6.00982C14.9985 6.76327 15.0018 7.51275 14.9985 8.2662C14.9953 8.74999 14.8113 9.00775 14.4927 8.99982C14.1741 8.99189 14.0033 8.73017 14.0033 8.27017C13.9989 6.75534 13.9989 5.24052 14.0033 3.72569C14.0033 3.28155 14.2069 3 14.5026 3C14.7982 3 14.9953 3.26966 14.9985 3.72172C15.0018 4.4831 14.9985 5.24845 14.9985 6.00982Z" fill="#474C5A"/>
<path d="M11.9956 7.03097C11.9956 7.45037 12.0022 7.86536 11.9924 8.28034C11.9826 8.69533 11.7929 8.99553 11.5052 8.99995C11.2174 9.00436 11.0114 8.73065 11.0082 8.29359C10.9973 7.43419 10.9973 6.57331 11.0082 5.71097C11.0114 5.28715 11.2371 4.99136 11.5117 5.00019C11.7864 5.00902 11.9858 5.3004 11.9956 5.73745C12.0054 6.17451 11.9956 6.59833 11.9956 7.03097Z" fill="#474C5A"/>
<path d="M17.9965 7.03554C17.9965 7.4505 18.0063 7.86988 17.9932 8.28485C17.9801 8.69981 17.7939 9 17.5031 9C17.2124 9 17.0163 8.73954 17.0098 8.28926C16.9967 7.4299 16.9967 6.56907 17.0098 5.70677C17.0163 5.26973 17.2418 4.9872 17.5129 5.00045C17.7841 5.01369 17.9801 5.2918 17.9899 5.74209C17.9997 6.19237 17.9965 6.60733 17.9965 7.03554Z" fill="#474C5A"/>
<rect x="4.58057" y="22.0002" width="19.2586" height="0.836059" fill="white"/>
</svg>
