<svg width="33" height="33" viewBox="0 0 33 33" fill="none" xmlns="http://www.w3.org/2000/svg">
<path d="M30.9922 16.0312C30.9922 20.9375 30.9948 25.8464 31 30.7578C31 30.9453 30.9688 31 30.7656 31C20.9323 30.9948 11.0938 30.9948 1.25 31C1.03125 31 1 30.9375 1 30.7422C1.00521 20.9141 1.00521 11.0859 1 1.25781C1 1.05469 1.03125 1 1.25 1H30.7344C30.9609 1 31 1.0625 31 1.27344C30.9948 6.1901 30.9922 11.1094 30.9922 16.0312Z" fill="#FEFEFE"/>
<path d="M21 16.0961V16.3902C21 20.8311 20.9925 25.2644 21 29.7053C21 29.9315 20.9624 29.9993 20.7593 29.9993H6.24824C6.05266 30.0069 6 29.9541 6 29.7128C6.00502 25.2393 6.00502 20.7657 6 16.2922C6 16.0283 6.04514 15.968 6.26329 16.0434C6.47752 16.1197 6.66723 16.2525 6.81244 16.4279C6.94784 16.5787 7.0682 16.737 7.20361 16.8803C7.62487 17.3251 8.22668 17.3251 8.64794 16.8803C8.79839 16.7295 8.92628 16.5485 9.07673 16.3902C9.53561 15.8699 10.16 15.8699 10.6264 16.3902C10.7317 16.5033 10.8295 16.6314 10.9273 16.7521C11.4614 17.3779 12.0782 17.3779 12.6199 16.7445L12.8681 16.443C13.3796 15.8549 14.0115 15.8549 14.5231 16.4505L14.824 16.8124C15.2979 17.3477 15.9223 17.3477 16.3962 16.8199C16.5241 16.6767 16.6369 16.5259 16.7648 16.3826C17.2237 15.8775 17.8405 15.8775 18.2994 16.3751C18.4198 16.5033 18.5251 16.6465 18.6379 16.7747C19.1344 17.3553 19.7513 17.3628 20.2553 16.7973C20.3756 16.6691 20.4809 16.5334 20.5938 16.3977C20.7 16.2627 20.8402 16.1586 21 16.0961Z" fill="#474C5A"/>
<path d="M22.0152 16.1041C22.3411 16.2322 22.5337 16.4734 22.7485 16.6919C22.9633 16.9104 23.2299 17.1516 23.5854 17.1968C23.7878 17.2246 23.9938 17.2036 24.1868 17.1356C24.3798 17.0675 24.5544 16.9542 24.6964 16.8049C24.8223 16.6693 24.9483 16.5336 25.0816 16.4055C25.2124 16.2699 25.3685 16.1623 25.5408 16.089C25.9556 15.9308 25.9926 15.9534 25.9926 16.4055C25.9926 20.8366 25.9951 25.2701 26 29.7061C26 29.9397 25.9556 30 25.7185 30C24.5557 29.9849 23.3929 29.9925 22.23 29.9925C22.0893 29.9925 21.993 30 22.0004 29.7965V16.2096C22.0004 16.187 22.0078 16.1569 22.0152 16.1041Z" fill="#474C5A"/>
<path d="M10.505 13.9368C10.0526 13.7728 9.62328 13.7025 9.16328 13.7962C8.66306 13.9013 8.20902 14.1668 7.86759 14.5537C7.76873 14.6688 7.6638 14.7783 7.55326 14.8817C7.38459 15.0301 7.20059 15.0457 7.03958 14.8895C6.69458 14.5693 6.39558 14.1945 5.96624 13.9758C5.89724 13.9446 5.89724 13.8665 5.8819 13.804C5.3299 11.4065 4.93889 8.99341 5.00789 6.52563C5.0176 5.78469 5.12855 5.04874 5.33756 4.33899C5.41813 4.05914 5.5396 3.79324 5.6979 3.55024C6.08124 2.99577 6.59491 2.8552 7.20059 3.15196C7.68359 3.39405 8.0516 3.7689 8.38893 4.1828C9.46995 5.5104 10.183 7.04105 10.8576 8.60294C11.0263 9.00122 11.0646 9.32921 10.8653 9.74311C10.5816 10.321 10.505 10.9614 10.505 11.6174V13.9368Z" fill="#474C5A"/>
<path d="M17.0107 14.3292C16.9522 13.3655 17.1335 12.4024 17.5382 11.5265C17.9245 10.6842 18.4593 9.96119 19.2913 9.50651C20.2645 8.96983 21.1708 9.16363 21.884 10.0357C21.9062 10.0581 21.9062 10.1028 21.9434 10.1252C22.092 9.5885 22.3074 9.11891 22.664 8.73131C23.2137 8.12754 23.912 7.92629 24.6994 8.02319C25.0263 8.06046 25.1971 8.26917 25.16 8.53751C25.1229 8.80585 24.9149 8.93256 24.6029 8.90275C23.6371 8.82821 23.0131 9.33507 22.8571 10.3488C23.2063 10.2146 23.5554 10.1103 23.9343 10.1475C24.6177 10.2072 25.108 10.5724 25.4497 11.1464C26.0292 12.1228 26.1109 13.1813 25.8806 14.2695C25.8137 14.5826 25.5017 14.7987 25.212 14.9702C25.1517 14.9971 25.0844 15.0037 25.0201 14.9889C24.9558 14.9741 24.898 14.9388 24.8554 14.8882C24.7589 14.7913 24.6549 14.6944 24.5657 14.59C23.652 13.5465 22.1142 13.539 21.2005 14.5826L21.1634 14.6199C20.7177 15.1267 20.5839 15.1267 20.1382 14.6199C19.4696 13.8521 18.4742 13.5987 17.605 13.9639C17.4045 14.0459 17.2336 14.1726 17.0107 14.3292Z" fill="#474C5A"/>
<path d="M15.9009 14.9986C15.6534 14.9486 15.5259 14.7482 15.3759 14.5908C15.0463 14.2285 14.5978 13.9832 14.1035 13.8948C13.6092 13.8065 13.0981 13.8803 12.6534 14.1043C12.3008 14.2832 12.0533 14.5622 11.7908 14.8198C11.5283 15.0773 11.3183 15.0487 11.0783 14.7983C11.0482 14.7639 11.026 14.7238 11.0131 14.6807C11.0002 14.6376 10.9969 14.5923 11.0033 14.5479C11.0033 13.6321 10.9958 12.7164 11.0033 11.7935C11.0148 11.0547 11.2552 10.3358 11.6943 9.72717C12.1334 9.11858 12.7516 8.64762 13.4709 8.37365C13.6584 8.30926 13.7109 8.22341 13.6959 8.0517C13.6809 7.75837 13.7034 7.45788 13.6959 7.16455C13.6884 7.03577 13.7259 7 13.8609 7C14.6484 7.00715 15.4359 7.00715 16.2159 7C16.3509 7 16.3959 7.03577 16.3959 7.16455C16.3809 7.46504 16.3959 7.77268 16.3884 8.07316C16.3809 8.22341 16.4184 8.3021 16.5834 8.35934C17.0924 8.54704 17.553 8.83746 17.9334 9.21072C18.0234 9.29657 18.0234 9.34665 17.9259 9.4325C16.2384 10.9278 15.6384 12.7808 15.9234 14.9271C15.9309 14.9414 15.9159 14.9629 15.9009 14.9986Z" fill="#474C5A"/>
<path d="M15.0292 5.99868C14.4283 5.99868 13.819 5.98757 13.218 5.99868C13.0344 6.00978 12.9926 5.93205 13.001 5.69887C13.0093 5.22141 13.0093 4.73285 13.001 4.25538C12.9926 4.04441 13.0427 4 13.193 4H16.8154C16.9656 4 17.0073 4.05552 16.999 4.25538C16.9906 4.74395 16.9906 5.22141 16.999 5.70998C17.0073 5.95426 16.9489 6.00978 16.7736 5.99868C16.1977 5.98757 15.6135 5.99868 15.0292 5.99868Z" fill="#474C5A"/>
<path d="M8 6.44963C7.97679 6.52553 7.96132 6.60144 7.93811 6.67734C7.59771 7.65646 7.25731 8.63559 6.92464 9.62231C6.87049 9.77411 6.79313 9.89555 6.6384 9.95627C6.56086 9.99413 6.4734 10.0079 6.38769 9.99567C6.30198 9.98346 6.22211 9.94589 6.15874 9.88796C5.99628 9.74375 5.96533 9.57677 6.03496 9.37183C6.32121 8.5521 6.59972 7.72478 6.87823 6.90504C6.95559 6.69252 7.01748 6.4724 7.11032 6.26747C7.20315 6.06254 7.4043 5.95627 7.65186 6.017C7.89943 6.07772 7.96905 6.2447 8 6.44963Z" fill="#FEFEFE"/>
<path d="M7.47134 13.9998C7.39817 14.002 7.32552 13.987 7.25951 13.9561C7.1935 13.9252 7.13606 13.8793 7.09201 13.8222C7.04797 13.7652 7.01861 13.6986 7.0064 13.6281C6.99419 13.5577 6.9995 13.4854 7.02187 13.4174C7.37835 12.3736 7.74258 11.3298 8.11455 10.2935C8.13323 10.237 8.16388 10.185 8.2045 10.1408C8.24512 10.0966 8.29482 10.0612 8.35035 10.0369C8.40589 10.0127 8.46603 10.0001 8.52688 10C8.58772 9.99991 8.6479 10.0123 8.70352 10.0364C8.95151 10.1271 9.06 10.3541 8.967 10.6415C8.73452 11.3222 8.49428 11.9954 8.2618 12.6686C8.1533 12.9938 8.03706 13.3115 7.92856 13.6292C7.82007 13.9468 7.71158 13.9847 7.47134 13.9998Z" fill="#FEFEFE"/>
</svg>
