<svg width="32" height="33" viewBox="0 0 32 33" fill="none" xmlns="http://www.w3.org/2000/svg">
<g clip-path="url(#clip0_61_4283)">
<path d="M16 32.4917H0.258333C0.0583332 32.4917 0 32.4667 0 32.2417C0.00555556 21.7417 0.00555556 11.2389 0 0.733367C0 0.533367 0.0500001 0.491699 0.241667 0.491699H31.7583C31.9917 0.491699 32 0.566699 32 0.758366C31.9889 11.2473 31.9889 21.7417 32 32.2417C32 32.4584 31.95 32.4917 31.7417 32.4917H16Z" fill="#FEFEFE"/>
<path d="M11.5333 30.5C11.95 29.9083 11.9917 29.2916 11.9833 28.65C11.9667 27.3583 11.9833 26.0666 11.975 24.7833C11.975 24.5666 12.0167 24.5083 12.2417 24.5083H16.7917C17.3 24.5083 17.4667 24.3416 17.4667 23.8416V16.2083C17.4667 15.7 17.3083 15.5333 16.8 15.5333H11.75C11.5417 15.5333 11.4667 15.5 11.475 15.2666C11.4833 14.175 11.475 13.0833 11.4833 11.9916C11.48 11.669 11.5411 11.3489 11.663 11.0501C11.7849 10.7514 11.9653 10.4799 12.1935 10.2518C12.4216 10.0236 12.693 9.84326 12.9918 9.72132C13.2906 9.59938 13.6107 9.53829 13.9333 9.54163H17.9833C19.3917 9.54997 20.4583 10.6 20.4583 12V30.25C20.4583 30.4166 20.4583 30.5083 20.2417 30.5083L11.5333 30.5Z" fill="#474C5A"/>
<path d="M18.3501 14.3667H11.4751V30.4992H18.3501V14.3667Z" fill="#474C5A"/>
<path d="M10.9834 24.2749V28.9499C10.9834 29.9583 10.4334 30.4999 9.41676 30.4999H4.49176C3.56676 30.4999 3.0001 29.9333 3.0001 29.0083C3.0001 28.6749 2.85843 28.2416 3.05843 28.0582C3.25843 27.8749 3.6751 28.0082 3.99176 28.0082C5.11676 27.9999 6.23343 28.0082 7.35843 28.0082C7.80843 27.9999 7.98343 27.8332 7.98343 27.3916C7.99176 25.1332 7.99176 22.8832 7.98343 20.6249C7.98343 20.1999 7.80843 20.0249 7.37509 20.0249C6.00843 20.0249 4.63343 20.0166 3.26676 20.0249C3.0501 20.0332 2.9751 19.9832 2.99176 19.7582C3.00843 19.5332 2.98343 19.2832 3.0501 19.0499C3.21677 18.4749 3.69176 18.0332 4.28343 18.0416C5.29176 18.0416 6.06676 17.2332 5.99176 16.2666C5.9751 16.0749 6.03343 16.0249 6.2251 16.0249C6.74176 16.0416 7.26676 16.0416 7.78343 16.0332C7.95009 16.0249 8.00843 16.0666 7.99176 16.2332C7.89176 17.2166 8.70009 18.0499 9.72509 18.0416C10.4501 18.0416 10.9751 18.6832 10.9834 19.4499V24.2749Z" fill="#474C5A"/>
<path d="M3.00003 23.9833C3.00003 23.0749 3.00837 22.1749 2.9917 21.2749C2.9917 21.0666 3.0417 21.0166 3.25003 21.0166C4.4167 21.0249 5.57503 21.0249 6.7417 21.0166C6.9417 21.0166 6.9917 21.0666 6.9917 21.2749C6.98059 23.0972 6.98059 24.9249 6.9917 26.7583C6.9917 26.9583 6.9417 27.0166 6.7417 27.0083C5.57503 26.9999 4.4167 26.9999 3.25003 27.0083C3.0417 27.0166 2.9917 26.9583 2.9917 26.7583C3.00837 25.8333 3.00003 24.9083 3.00003 23.9833Z" fill="#474C5A"/>
<path d="M24.1083 26.5082C23.3166 26.5082 22.5166 26.4999 21.7166 26.5082C21.525 26.5166 21.45 26.4832 21.45 26.2666C21.4666 25.0916 21.4583 23.9249 21.45 22.7499C21.45 22.5499 21.5083 22.5082 21.6916 22.5166C23.2666 22.5249 24.85 22.5082 26.425 22.5166C26.6876 22.5144 26.9481 22.5639 27.1916 22.6624C27.4351 22.7609 27.6568 22.9064 27.8441 23.0905C28.0313 23.2747 28.1805 23.494 28.283 23.7358C28.3855 23.9776 28.4394 24.2373 28.4416 24.4999C28.4416 25.6166 27.5583 26.4999 26.4166 26.5082C25.65 26.5166 24.8833 26.5082 24.1083 26.5082Z" fill="#474C5A"/>
<path d="M25.4166 28.5H21.7083C21.5 28.5 21.45 28.45 21.45 28.2417C21.4583 27.5 21.45 27.5 22.2083 27.5H29.1583C29.3916 27.5 29.4499 27.55 29.4416 27.7833C29.4333 28.5 29.4416 28.5 28.7166 28.5H25.4166Z" fill="#474C5A"/>
<path d="M14.9749 4.77501C14.9749 4.28335 14.9749 3.78335 14.9666 3.28335C14.9666 3.10835 15.0166 3.05835 15.1916 3.05835C15.7082 3.07502 16.2249 3.07502 16.7499 3.05835C16.9249 3.05835 16.9749 3.10835 16.9666 3.28335C16.9554 4.30001 16.9554 5.31668 16.9666 6.33335C16.9749 6.50834 16.9249 6.56668 16.7499 6.55835C16.2249 6.55001 15.7082 6.55001 15.1916 6.55835C15.0166 6.56668 14.9666 6.51668 14.9666 6.33335C14.9749 5.81668 14.9749 5.30001 14.9749 4.77501Z" fill="#474C5A"/>
<path d="M28.2666 29.5C28.2722 29.5161 28.275 29.533 28.2749 29.55C28.1333 30.5 28.1333 30.5 27.1749 30.5C25.3666 30.5 23.5499 30.4917 21.7333 30.5083C21.4916 30.5083 21.45 30.4417 21.45 30.2167C21.4666 29.5 21.45 29.5 22.175 29.5H28.2666Z" fill="#474C5A"/>
<path d="M6.96666 15.0334C6.54999 15.0334 6.13333 15.0251 5.72499 15.0418C5.55833 15.0418 5.48333 15.0168 5.49166 14.8251C5.50833 14.4668 5.50833 14.1001 5.49166 13.7334C5.48333 13.5584 5.54999 13.5334 5.69999 13.5334C6.56666 13.5418 7.42499 13.5418 8.29166 13.5334C8.46666 13.5334 8.49166 13.6001 8.49166 13.7501C8.48332 14.1084 8.47499 14.4751 8.49166 14.8418C8.49999 15.0168 8.42499 15.0418 8.27499 15.0418L6.96666 15.0334Z" fill="#474C5A"/>
<path d="M25.4416 11.5501C25.4372 11.8161 25.3279 12.0695 25.1375 12.2553C24.9471 12.441 24.691 12.544 24.425 12.5418C24.164 12.5311 23.9172 12.4204 23.7357 12.2327C23.5542 12.0449 23.4519 11.7946 23.45 11.5334C23.4747 11.2852 23.5913 11.0551 23.777 10.8884C23.9627 10.7218 24.2039 10.6305 24.4534 10.6326C24.7029 10.6347 24.9426 10.73 25.1254 10.8997C25.3083 11.0695 25.421 11.3015 25.4416 11.5501Z" fill="#474C5A"/>
<path d="M24.4417 19.5251C24.1749 19.5185 23.9215 19.4074 23.7359 19.2156C23.5504 19.0239 23.4477 18.7669 23.45 18.5001C23.4549 18.3031 23.5179 18.112 23.6312 17.9507C23.7444 17.7894 23.9027 17.6651 24.0863 17.5935C24.2699 17.5219 24.4705 17.5061 24.663 17.5482C24.8556 17.5902 25.0314 17.6882 25.1684 17.8298C25.3054 17.9714 25.3975 18.1504 25.4332 18.3442C25.4688 18.538 25.4464 18.738 25.3688 18.9191C25.2912 19.1002 25.1617 19.2544 24.9968 19.3622C24.8318 19.47 24.6387 19.5267 24.4417 19.5251Z" fill="#474C5A"/>
<path d="M15.9916 8.55005H14.7166C14.5416 8.55838 14.4666 8.53338 14.4666 8.32505C14.4666 7.55005 14.4582 7.55005 15.2249 7.55005C15.9916 7.55005 16.5582 7.55838 17.2249 7.55005C17.3916 7.55005 17.4749 7.56672 17.4749 7.77505C17.4749 8.55005 17.4832 8.55005 16.7082 8.55005H15.9916Z" fill="#474C5A"/>
<path d="M13.8749 4.05843C12.4333 4.05843 12.4416 4.05843 12.4749 3.31676C12.4833 3.13343 12.5833 3.0501 12.9583 3.05843C13.6416 3.0751 14.3166 3.06676 14.9999 3.05843C15.2749 3.05843 15.3666 3.09176 15.3833 3.2501C15.4416 4.05843 15.4499 4.05843 13.8749 4.05843Z" fill="#474C5A"/>
<path d="M29.425 15.0332C29.5241 15.0299 29.6221 15.0562 29.7062 15.1088C29.7904 15.1613 29.8571 15.2377 29.8977 15.3282C29.9383 15.4187 29.9511 15.5193 29.9344 15.6171C29.9177 15.7149 29.8723 15.8056 29.8039 15.8775C29.7355 15.9494 29.6473 15.9993 29.5505 16.021C29.4536 16.0426 29.3525 16.0349 29.2601 15.9988C29.1676 15.9628 29.088 15.9001 29.0313 15.8187C28.9746 15.7372 28.9434 15.6408 28.9417 15.5416C28.9415 15.411 28.9916 15.2853 29.0816 15.1907C29.1716 15.096 29.2945 15.0397 29.425 15.0332Z" fill="#030303"/>
<path d="M23.9166 25.0082C23.5999 25.0082 23.2916 25.0165 22.9749 25.0082C22.6582 24.9999 22.4499 24.7915 22.4582 24.5082C22.4666 24.2249 22.6666 24.0249 22.9832 24.0165C23.5416 24.0082 24.1082 24.0082 24.6666 24.0165C24.99 24.0238 25.3047 23.911 25.5499 23.6999C25.8416 23.4582 26.1249 23.4582 26.3249 23.6915C26.5249 23.9249 26.4749 24.2082 26.2082 24.4499C25.8252 24.7951 25.332 24.9929 24.8166 25.0082C24.5166 25.0165 24.2166 25.0082 23.9166 25.0082Z" fill="#FEFEFE"/>
</g>
<defs>
<clipPath id="clip0_61_4283">
<rect width="32" height="32" fill="white" transform="translate(0 0.5)"/>
</clipPath>
</defs>
</svg>
