<svg width="32" height="33" viewBox="0 0 32 33" fill="none" xmlns="http://www.w3.org/2000/svg">
<path d="M10.0467 14.3535C10.7438 14.3535 11.3459 13.909 11.5622 13.2551C11.1495 13.3687 10.6235 13.4373 10.0467 13.4373C9.46983 13.4373 8.94386 13.3687 8.53125 13.2551C8.74743 13.9089 9.34946 14.3535 10.0467 14.3535Z" fill="#474C5A"/>
<path d="M18.0732 15.1575C18.04 15.0646 17.9712 14.9882 17.8815 14.9467L14.8133 13.5302C14.1605 13.3091 13.4957 13.1345 12.8243 13.0069C12.8007 13.0022 12.7771 13 12.754 13C12.5877 13 12.4389 13.1147 12.4019 13.283C12.1567 14.3624 11.2013 15.1704 10.0466 15.1704C8.89191 15.1704 7.93643 14.3624 7.69136 13.283C7.65388 13.1147 7.50536 13 7.3392 13C7.31603 13 7.2925 13.0022 7.26887 13.0069C6.59751 13.1345 5.93262 13.3091 5.27894 13.5302L2.21181 14.9466C2.12151 14.9882 2.05214 15.0645 2.02061 15.1575C1.98799 15.2515 1.99387 15.3529 2.03983 15.4416L3.37183 18.0703C3.43418 18.1951 3.56101 18.2699 3.69519 18.2699C3.72982 18.2699 3.76495 18.2649 3.79958 18.2545L5.27899 17.8161V26.6363C5.27899 26.8366 5.44241 27 5.64325 27H14.45C14.6503 27 14.8133 26.8365 14.8133 26.6363V17.8161L16.2938 18.2546C16.3284 18.265 16.3635 18.27 16.398 18.27C16.5319 18.27 16.6583 18.1952 16.7215 18.0705L18.054 15.4417C18.0988 15.353 18.1053 15.2516 18.0732 15.1575Z" fill="#474C5A"/>
<path d="M29.9309 9.57312L29.567 9.06768C29.5558 8.49364 29.3714 7.88787 28.9818 7.34838C28.5308 6.72224 27.5912 6.06804 26.6899 6.00367C26.6695 6.00254 26.338 6.00134 25.8261 6.00021C25.6519 5.99986 25.5023 6.1224 25.4682 6.29316C25.2374 7.44961 24.2256 8.3233 22.9998 8.3233C21.7739 8.3233 20.7614 7.44961 20.5311 6.29308C20.4972 6.12267 20.3472 5.99973 20.1734 6C19.6654 6.00092 19.3351 6.00262 19.3095 6.00367C18.4103 6.06783 17.4697 6.72104 17.0177 7.34838C16.6288 7.8878 16.4437 8.49364 16.4326 9.06768L16.0693 9.57312C16.0124 9.65067 15.9889 9.74831 16.0049 9.84384C16.0208 9.94015 16.0735 10.0246 16.1519 10.0814L18.3419 11.6546C18.5048 11.773 18.7328 11.7363 18.8507 11.5729L19.1828 11.111C19.5822 12.1077 19.7561 13.1736 19.6961 14.2325C18.835 16.0479 18.261 18.5213 18.261 21.2481C18.261 22.3249 18.9179 24.9099 19.3954 26.5866C19.4651 26.831 19.6886 27 19.9429 27H26.0567C26.3115 27 26.5345 26.8314 26.6042 26.5868C27.0819 24.91 27.7394 22.3251 27.7394 21.2481C27.7394 18.5234 27.1662 16.0514 26.3063 14.2365C26.2456 13.1768 26.4192 12.1101 26.8183 11.1132L27.1496 11.5729C27.2675 11.7364 27.4949 11.773 27.6577 11.6547L29.8484 10.0814C29.9267 10.0247 29.9794 9.94023 29.9954 9.84392C30.0106 9.74831 29.9878 9.65074 29.9309 9.57312Z" fill="#474C5A"/>
</svg>
