<svg width="33" height="33" viewBox="0 0 33 33" fill="none" xmlns="http://www.w3.org/2000/svg">
<path d="M29.3162 25.66H28.3962V13.7C28.3962 13.212 28.2024 12.744 27.8573 12.3989C27.5122 12.0539 27.0442 11.86 26.5562 11.86H19.1962V6.34C19.1962 5.852 19.0024 5.38399 18.6573 5.03892C18.3122 4.69386 17.8442 4.5 17.3562 4.5H6.31623C5.82823 4.5 5.36022 4.69386 5.01515 5.03892C4.67009 5.38399 4.47623 5.852 4.47623 6.34V25.66H3.55623C3.31223 25.66 3.07823 25.7569 2.90569 25.9295C2.73316 26.102 2.63623 26.336 2.63623 26.58C2.63623 26.824 2.73316 27.058 2.90569 27.2305C3.07823 27.4031 3.31223 27.5 3.55623 27.5H29.3162C29.5602 27.5 29.7942 27.4031 29.9668 27.2305C30.1393 27.058 30.2362 26.824 30.2362 26.58C30.2362 26.336 30.1393 26.102 29.9668 25.9295C29.7942 25.7569 29.5602 25.66 29.3162 25.66ZM15.5162 17.38C15.5162 17.624 15.4193 17.858 15.2468 18.0305C15.0742 18.2031 14.8402 18.3 14.5962 18.3H10.9162C10.6722 18.3 10.4382 18.2031 10.2657 18.0305C10.0932 17.858 9.99623 17.624 9.99623 17.38C9.99623 17.136 10.0932 16.902 10.2657 16.7295C10.4382 16.5569 10.6722 16.46 10.9162 16.46H14.5962C14.8402 16.46 15.0742 16.5569 15.2468 16.7295C15.4193 16.902 15.5162 17.136 15.5162 17.38ZM9.07623 9.1H12.7562C13.0002 9.1 13.2342 9.19693 13.4068 9.36946C13.5793 9.542 13.6762 9.776 13.6762 10.02C13.6762 10.264 13.5793 10.498 13.4068 10.6705C13.2342 10.8431 13.0002 10.94 12.7562 10.94H9.07623C8.83223 10.94 8.59823 10.8431 8.42569 10.6705C8.25316 10.498 8.15623 10.264 8.15623 10.02C8.15623 9.776 8.25316 9.542 8.42569 9.36946C8.59823 9.19693 8.83223 9.1 9.07623 9.1ZM9.07623 21.06H12.7562C13.0002 21.06 13.2342 21.1569 13.4068 21.3295C13.5793 21.502 13.6762 21.736 13.6762 21.98C13.6762 22.224 13.5793 22.458 13.4068 22.6305C13.2342 22.8031 13.0002 22.9 12.7562 22.9H9.07623C8.83223 22.9 8.59823 22.8031 8.42569 22.6305C8.25316 22.458 8.15623 22.224 8.15623 21.98C8.15623 21.736 8.25316 21.502 8.42569 21.3295C8.59823 21.1569 8.83223 21.06 9.07623 21.06ZM19.1962 13.7H26.5562V25.66H19.1962V13.7Z" fill="#474C5A"/>
<path d="M23.7966 21.0601H21.9566C21.7126 21.0601 21.4786 21.157 21.3061 21.3295C21.1335 21.5021 21.0366 21.7361 21.0366 21.9801C21.0366 22.2241 21.1335 22.4581 21.3061 22.6306C21.4786 22.8031 21.7126 22.9001 21.9566 22.9001H23.7966C24.0406 22.9001 24.2746 22.8031 24.4472 22.6306C24.6197 22.4581 24.7166 22.2241 24.7166 21.9801C24.7166 21.7361 24.6197 21.5021 24.4472 21.3295C24.2746 21.157 24.0406 21.0601 23.7966 21.0601Z" fill="#474C5A"/>
<path d="M21.9566 18.3H23.7966C24.0406 18.3 24.2746 18.203 24.4472 18.0305C24.6197 17.858 24.7166 17.624 24.7166 17.38C24.7166 17.136 24.6197 16.902 24.4472 16.7294C24.2746 16.5569 24.0406 16.46 23.7966 16.46H21.9566C21.7126 16.46 21.4786 16.5569 21.3061 16.7294C21.1335 16.902 21.0366 17.136 21.0366 17.38C21.0366 17.624 21.1335 17.858 21.3061 18.0305C21.4786 18.203 21.7126 18.3 21.9566 18.3Z" fill="#474C5A"/>
</svg>
