<svg width="33" height="33" viewBox="0 0 33 33" fill="none" xmlns="http://www.w3.org/2000/svg">
<path d="M3.81171 13.1603C4.05215 10.8811 6.40247 9.55774 8.49765 10.935C10.0972 11.9888 10.6811 14.2435 9.79793 15.8953C9.61194 16.2456 9.35603 16.5542 9.04601 16.8019C8.73598 17.0496 8.37841 17.2311 7.99539 17.3354C7.61236 17.4397 7.21201 17.4644 6.81904 17.4081C6.42607 17.3517 6.04884 17.2156 5.71062 17.0079C4.64095 16.3609 4.03742 15.4149 3.82153 14.2043C3.81662 14.1651 3.82153 14.121 3.77246 14.1014V13.4152C3.83134 13.3367 3.77246 13.2436 3.81171 13.1603Z" fill="#474C5A"/>
<path d="M28.7725 17.4351C28.6744 17.571 28.6891 17.7361 28.6449 17.8867C28.1544 19.4404 27.1342 20.4553 25.4959 20.7126C23.7742 20.9748 22.3076 19.8337 22.1604 18.0615C22.0035 16.1872 23.2886 14.4635 25.1231 14.0313C26.9576 13.5992 28.488 14.7014 28.7332 16.4834C28.7433 16.5107 28.7565 16.5367 28.7725 16.5611V16.6096C28.753 16.6558 28.743 16.7053 28.743 16.7553C28.743 16.8053 28.753 16.8548 28.7725 16.901V17.4351Z" fill="#474C5A"/>
<path d="M28.7725 16.875C28.6974 16.7917 28.6813 16.7083 28.7725 16.625V16.875Z" fill="#474C5A"/>
<path d="M3.81814 13.1875C3.84098 13.274 3.85239 13.3654 3.77246 13.4375V13.1971L3.81814 13.1875Z" fill="#474C5A"/>
<path d="M6.89747 23.5688C6.8957 22.8146 7.11472 22.0765 7.5273 21.4463C8.4159 20.0492 9.28497 18.6472 10.198 17.2698C11.4918 15.3139 13.3374 14.3335 15.6712 14.4462C17.7023 14.5443 19.3086 15.51 20.4364 17.2159C21.369 18.6227 22.2722 20.0443 23.1608 21.4757C24.5914 23.7796 23.3952 26.7208 20.7928 27.3286C20.0409 27.5051 19.2891 27.4757 18.5665 27.1767C17.4191 26.7012 16.2424 26.4218 14.9876 26.4806C14.0209 26.5296 13.103 26.7747 12.2095 27.1375C10.1296 27.9904 7.82025 26.9218 7.09277 24.7943C6.96464 24.3985 6.89875 23.985 6.89747 23.5688Z" fill="#474C5A"/>
<path d="M9.83496 9.6073C9.87425 8.34069 10.3556 7.12299 11.5146 6.2574C12.9732 5.15706 14.8493 5.38691 16.1164 6.78067C17.5947 8.40427 17.5702 11.1869 16.0673 12.786C14.4761 14.4732 11.9566 14.2825 10.6453 12.3704C10.1002 11.583 9.84478 10.7076 9.83496 9.6073Z" fill="#474C5A"/>
<path d="M24.4599 11.0741C24.3967 12.5076 23.8524 13.7021 22.6422 14.5212C20.805 15.7646 18.613 15.0186 17.8645 12.9171C17.1744 10.9717 18.1902 8.61188 20.0565 7.82201C21.743 7.11016 23.5656 7.90978 24.2023 9.64553C24.3755 10.1016 24.4629 10.586 24.4599 11.0741Z" fill="#474C5A"/>
</svg>
