<svg width="31" height="33" viewBox="0 0 31 33" fill="none" xmlns="http://www.w3.org/2000/svg">
<path fill-rule="evenodd" clip-rule="evenodd" d="M15.2902 5C18.2196 5 20.8912 6.12211 22.9001 7.95834C22.6694 9.07201 22.548 10.2441 22.548 11.4518C22.548 11.9622 22.5697 12.465 22.6114 12.9578C21.7387 13.0226 20.8976 13.1109 20.086 13.2203C18.6308 9.59659 16.2926 6.72294 13.375 5.16573C13.9979 5.05889 14.6371 5 15.2902 5ZM23.3544 11.4513C23.3544 10.4873 23.4346 9.54746 23.5886 8.64467C24.6837 9.83292 25.5274 11.2562 26.0354 12.8292C25.1354 12.8316 24.2608 12.8554 23.4173 12.9028C23.3766 12.4275 23.3544 11.9426 23.3544 11.4513ZM19.5675 14.1056C18.3522 14.2887 17.2092 14.5201 16.1337 14.7898C16.9068 16.5031 17.347 18.4539 17.347 20.5234C17.347 23.2113 16.7469 25.6268 15.6157 27.57C16.5712 27.5422 17.5188 27.3966 18.4373 27.1301C19.0687 26.9469 19.6824 26.7079 20.2723 26.4176C20.3162 26.3959 20.3594 26.3734 20.4028 26.3509L20.403 26.3508L20.4521 26.3252L20.5453 25.8503C20.7368 24.6479 20.9348 23.4044 20.9348 22.1362C20.9347 19.2497 20.4476 16.5165 19.5675 14.1056ZM23.508 13.7052C24.3934 13.6561 25.3123 13.6331 26.2619 13.6352C26.468 14.4871 26.5801 15.3754 26.5801 16.2898C26.5801 17.4446 26.4051 18.5595 26.0812 19.6095C24.8111 18.5216 23.862 16.3084 23.508 13.7052ZM6.86361 9.03209C6.8181 9.03209 6.77298 9.03035 6.7277 9.0286L6.66722 9.02645C5.38137 10.555 4.49513 12.4141 4.15563 14.431C4.1546 14.4384 4.15323 14.4454 4.15182 14.4527L4.15118 14.456C4.10482 14.735 4.07095 15.0173 4.04557 15.3016C4.04159 15.3474 4.03836 15.3938 4.03519 15.4397L4.03506 15.4416C4.01372 15.7226 4 16.0047 4 16.2898C4 17.4571 4.17822 18.5836 4.50845 19.6436C6.81602 17.6963 10.201 15.6103 14.9734 14.2657C13.2455 11.1187 10.2571 9.03209 6.86361 9.03209ZM12.105 5.46053L12.1154 5.45766C15.2286 6.76044 17.7354 9.61677 19.2687 13.3384C18.0314 13.5307 16.8669 13.7719 15.7718 14.0521C14.0073 10.7215 10.926 8.44709 7.38698 8.24183C7.39423 8.23479 7.40099 8.22744 7.40774 8.22009V8.22007C7.4145 8.21272 7.42127 8.20537 7.42852 8.1983L7.43099 8.19598C7.44383 8.18388 7.45632 8.17213 7.46883 8.15998C7.86923 7.77371 8.29943 7.41767 8.75504 7.09265L8.796 7.06335C8.82416 7.04314 8.85233 7.02295 8.88086 7.00313C9.09333 6.85637 9.31106 6.71604 9.53403 6.58338C9.56058 6.56771 9.58726 6.55255 9.61394 6.53742C9.63464 6.52566 9.65532 6.5139 9.67595 6.50192C9.90417 6.37011 10.1364 6.24388 10.3751 6.12817L10.3792 6.12599C10.3846 6.12308 10.3898 6.12025 10.3953 6.11767C10.6456 5.9967 10.9034 5.88703 11.1647 5.78423C11.184 5.77677 11.2032 5.76911 11.2224 5.76145C11.2418 5.75378 11.261 5.74612 11.2803 5.73866C11.5428 5.63869 11.8098 5.54797 12.082 5.46732C12.0895 5.4648 12.0973 5.46267 12.105 5.46053ZM22.6971 13.759C21.898 13.8177 21.125 13.8965 20.3787 13.9932C21.2564 16.4528 21.7416 19.2204 21.7416 22.1367C21.7416 23.4037 21.5573 24.6181 21.3701 25.7954C23.3584 24.5193 24.9208 22.6383 25.797 20.413C24.2318 19.245 23.09 16.7491 22.6971 13.759ZM4.80078 20.4563C7.06398 18.493 10.463 16.3492 15.3459 14.998C16.1068 16.6386 16.541 18.5216 16.541 20.5236C16.541 23.2581 15.8923 25.6826 14.6734 27.5624C10.186 27.3193 6.38982 24.4431 4.80078 20.4563ZM8.03289 23.1448C8.12118 23.1448 8.21031 23.1157 8.28488 23.0562C8.45829 22.9166 8.4865 22.663 8.34698 22.4892C8.2526 22.3718 8.1494 22.2484 8.04255 22.1215L8.0378 22.1159C7.72522 21.7434 7.37182 21.3224 7.18289 20.9469C7.08247 20.7481 6.84013 20.6675 6.64137 20.7684C6.4426 20.8688 6.36235 21.1111 6.46277 21.3099C6.69471 21.7705 7.08193 22.2316 7.42393 22.6389L7.42521 22.6404C7.52806 22.7626 7.62724 22.8811 7.71796 22.9936C7.79783 23.0933 7.91473 23.1448 8.03289 23.1448ZM12.4674 25.9677C12.6355 25.9677 12.7919 25.8621 12.8492 25.6944C12.921 25.4835 12.8085 25.254 12.5976 25.1821C11.8392 24.9234 11.0772 24.5423 10.2682 24.016C10.0812 23.8948 9.83158 23.9476 9.71022 24.1342C9.58925 24.321 9.64208 24.5705 9.82836 24.6927C10.6941 25.2555 11.515 25.6656 12.3375 25.9459C12.3806 25.9604 12.4242 25.9677 12.4674 25.9677Z" fill="#474C5A"/>
</svg>
