<svg width="33" height="33" viewBox="0 0 33 33" fill="none" xmlns="http://www.w3.org/2000/svg">
<path d="M4.09082 16.2122C4.2529 15.7753 4.57002 15.5992 5.02103 15.6273C5.28881 15.6485 5.54955 15.6273 5.81734 15.6344C5.96533 15.6414 6.02875 15.6132 6.01466 15.4441C6.00056 15.275 6.00761 15.0002 6.01466 14.7747C6.0217 14.3307 6.2613 14.0981 6.69822 14.0981H8.78414C9.21401 14.0981 9.4536 14.3307 9.4677 14.7606C9.47474 15.0002 9.47475 15.2398 9.46065 15.4794C9.46065 15.6062 9.50293 15.6344 9.62273 15.6344C10.2358 15.6485 10.2358 15.6555 10.2358 15.0424V14.824C10.2429 14.3236 10.4684 14.0981 10.9687 14.0981H13.0053C13.4422 14.0981 13.6818 14.3307 13.6889 14.7747C13.6936 15.0002 13.6936 15.2257 13.6889 15.4512C13.6818 15.5921 13.71 15.6485 13.865 15.6344C14.1328 15.6203 14.3936 15.6273 14.6614 15.6344C14.8023 15.6414 14.8587 15.6133 14.8446 15.4582C14.8305 15.3032 14.8375 14.9931 14.8446 14.7606C14.8587 14.3307 15.0983 14.0981 15.5211 14.0981H17.6281C18.0369 14.0981 18.2835 14.3307 18.2976 14.7465C18.307 14.9861 18.307 15.2257 18.2976 15.4653C18.2906 15.6062 18.3399 15.6414 18.4667 15.6344C18.5936 15.6273 18.8543 15.6273 19.0446 15.6344C19.5308 15.6414 19.8339 15.9374 19.8339 16.4307V21.3495C19.8339 21.8639 19.5308 22.1599 19.0094 22.1599H14.7882C11.5325 22.1599 8.27675 22.1529 5.02103 22.167C4.57002 22.167 4.2529 22.019 4.09082 21.5821V16.2122Z" fill="#474C5A"/>
<path d="M4.09082 23.1181C4.2529 22.6883 4.56297 22.5332 5.02103 22.5403C7.10694 22.5544 9.19286 22.5473 11.2788 22.5473C11.8848 22.5473 12.1526 22.8151 12.1526 23.4211V28.192C12.1526 28.798 11.8848 29.0728 11.2788 29.0728C9.19286 29.0728 7.10694 29.0658 5.02103 29.0799C4.56297 29.0799 4.2529 28.9319 4.09082 28.495V23.1181Z" fill="#474C5A"/>
<path d="M18.0577 4.5C18.0663 4.50976 18.0713 4.52221 18.0718 4.53524C18.052 4.55616 18.0282 4.57295 18.0018 4.58463C17.9755 4.59632 17.947 4.60268 17.9182 4.60333C17.8894 4.60399 17.8607 4.59893 17.8339 4.58845C17.807 4.57797 17.7825 4.56228 17.7617 4.54228C17.7674 4.52894 17.7698 4.51445 17.7688 4.5H18.0577Z" fill="#474C5A"/>
<path d="M17.7623 4.54224H18.0723C18.1584 4.55725 18.2402 4.59092 18.3119 4.64089L20.1794 5.76137C20.5599 5.98687 20.6445 6.29694 20.4331 6.69158C20.3062 6.93822 20.1723 7.18487 20.0244 7.42447C19.9609 7.53017 19.968 7.58655 20.0807 7.64292C20.1935 7.6993 20.4472 7.84729 20.6234 7.95299C20.7995 8.0587 20.7502 7.99527 20.7995 7.90366C20.9334 7.65702 21.0673 7.41037 21.2083 7.17077C21.4197 6.80433 21.7368 6.71272 22.1032 6.91708C22.7656 7.30467 23.421 7.6993 24.0764 8.10098C24.3935 8.29125 24.471 8.61541 24.2878 8.96776C24.1751 9.20031 24.0482 9.41877 23.9143 9.63723C23.7804 9.85569 23.8579 9.81341 23.9777 9.87683C24.1491 9.96237 24.3161 10.0564 24.4781 10.1587C24.5838 10.2292 24.6402 10.2221 24.6965 10.1023C24.7529 9.98253 24.922 9.68656 25.0489 9.47515C25.2603 9.1087 25.5774 9.01005 25.9368 9.22146C26.6063 9.60904 27.2687 10.0107 27.9311 10.4124C28.0589 10.4828 28.1554 10.5989 28.2012 10.7374C28.2469 10.876 28.2386 11.0267 28.1778 11.1594C28.0865 11.3547 27.9854 11.5452 27.8747 11.7302C27.7197 12.0121 27.7197 12.0121 28.0086 12.1742C28.0862 12.2146 28.1615 12.2593 28.2341 12.3081C28.6781 12.5688 28.7838 12.9564 28.5231 13.4074L26.3878 17.0648C26.3033 17.2128 26.2257 17.3537 26.1341 17.5017C25.8593 17.9598 25.4858 18.0655 25.0207 17.8047L22.4838 16.353L13.0337 10.9409C12.8998 10.8634 12.7659 10.7859 12.6814 10.659C12.5944 10.5476 12.5437 10.4122 12.5361 10.2711C12.5286 10.1299 12.5645 9.98986 12.6391 9.86978C13.4659 8.45568 14.2928 7.04393 15.1196 5.63452C15.331 5.26808 15.7116 5.16942 16.0921 5.35969C16.3035 5.4654 16.5149 5.5852 16.7193 5.71204C16.9237 5.83889 16.8743 5.76137 16.9307 5.64862C17.0717 5.38083 17.2196 5.12009 17.3747 4.85935C17.4592 4.70432 17.5649 4.56338 17.7623 4.54224Z" fill="#474C5A"/>
<path d="M20.7995 29.073H13.8229C13.1887 29.073 12.9209 28.8052 12.9209 28.171V23.4425C12.9209 22.8082 13.1887 22.5475 13.83 22.5475C17.0293 22.5475 20.2287 22.5404 23.428 22.5475C23.6465 22.5545 23.6958 22.4911 23.6747 22.2867C23.6641 22.0872 23.6641 21.8873 23.6747 21.6877C23.6817 21.2438 23.9213 21.0112 24.3582 21.0112H26.4441C26.874 21.0112 27.1136 21.2367 27.1277 21.6666C27.1348 21.9133 27.1348 22.1669 27.1277 22.4136C27.1207 22.5122 27.1559 22.5475 27.2616 22.5475C27.4801 22.5404 27.7056 22.5404 27.9311 22.5475C28.1254 22.5475 28.3119 22.6247 28.4493 22.7621C28.5867 22.8996 28.664 23.086 28.664 23.2804C28.664 24.9646 28.671 26.6559 28.664 28.3401C28.6569 28.7911 28.3257 29.073 27.8324 29.073H20.7995Z" fill="#474C5A"/>
<path d="M11.9625 21.3916H5.10574C4.90843 21.3916 4.85205 21.3493 4.85205 21.1449C4.86614 19.6369 4.86614 18.1217 4.85205 16.6137C4.85205 16.4305 4.90138 16.3882 5.07756 16.3882H18.8474C19.0166 16.3882 19.0729 16.4234 19.0729 16.6066C19.0589 18.1288 19.0659 19.651 19.0729 21.1661C19.0729 21.3493 19.0236 21.3916 18.8474 21.3916H11.9625Z" fill="#474C5A"/>
<path d="M7.75542 14.8662C8.00911 14.8662 8.2628 14.8732 8.52354 14.8591C8.64334 14.8591 8.69972 14.8803 8.70676 15.0283C8.71381 15.6343 8.72086 15.6343 8.12186 15.6343C7.74837 15.6343 7.36783 15.6273 6.99434 15.6343C6.8393 15.6414 6.77588 15.6132 6.77588 15.4299C6.78293 14.8662 6.76883 14.8662 7.34669 14.8662H7.75542Z" fill="white"/>
<path d="M11.9766 15.6343C11.7017 15.6343 11.4339 15.6273 11.1591 15.6343C11.0323 15.6414 11.0041 15.5991 10.997 15.4722C10.9829 14.8662 10.9759 14.8662 11.5749 14.8662C11.9695 14.8662 12.3642 14.8732 12.7517 14.8591C12.8927 14.8591 12.9209 14.9014 12.9279 15.0353C12.935 15.6343 12.942 15.6343 12.3571 15.6343H11.9766Z" fill="white"/>
<path d="M16.5855 14.8662C16.8462 14.8662 17.107 14.8732 17.3748 14.8591C17.5016 14.8591 17.5298 14.9085 17.5298 15.0283C17.5509 15.6343 17.5509 15.6343 16.9519 15.6343C16.5714 15.6343 16.1838 15.6273 15.8033 15.6343C15.6412 15.6413 15.606 15.585 15.606 15.437C15.606 14.8662 15.5989 14.8662 16.1768 14.8662H16.5855Z" fill="white"/>
<path d="M8.12187 28.3049C7.1071 28.3049 6.09233 28.2979 5.07756 28.312C4.90138 28.312 4.85205 28.2697 4.85205 28.0865C4.86614 26.5714 4.86614 25.0492 4.85205 23.5341C4.85205 23.3509 4.89433 23.3086 5.07756 23.3086C7.1071 23.3133 9.13664 23.3133 11.1662 23.3086C11.3424 23.3086 11.3917 23.3509 11.3917 23.5271C11.3846 25.0492 11.3846 26.5643 11.3917 28.0865C11.3917 28.2627 11.3494 28.312 11.1662 28.312C10.1514 28.2979 9.13664 28.3049 8.12187 28.3049Z" fill="#474C5A"/>
<path d="M25.401 17.1282L25.253 17.0436L13.5267 10.3419C13.3787 10.2573 13.3224 10.208 13.4351 10.0248C14.1751 8.77042 14.915 7.509 15.6408 6.24054C15.7395 6.07141 15.8029 6.07141 15.965 6.16302L27.6842 12.8647C27.8252 12.9423 27.8745 12.9986 27.7758 13.1678C27.0288 14.4292 26.2959 15.6976 25.549 16.9661C25.5137 17.0295 25.5067 17.1282 25.401 17.1282Z" fill="#474C5A"/>
<path d="M19.7074 6.41687C19.6087 6.6001 19.4889 6.78332 19.3973 6.98064C19.3057 7.17795 19.2493 7.1709 19.0872 7.07225C18.6221 6.79037 18.15 6.52258 17.6778 6.26184C17.551 6.19137 17.5157 6.14204 17.6003 6.00815C17.7122 5.83604 17.8134 5.65717 17.9033 5.47257C17.9667 5.35277 18.0231 5.35277 18.1218 5.4162L19.6017 6.30412C19.6439 6.32526 19.7074 6.33936 19.7074 6.41687Z" fill="white"/>
<path d="M23.5475 8.72826C23.4277 8.93263 23.3079 9.15109 23.1811 9.3625C23.1458 9.41183 23.0895 9.35545 23.0542 9.33431L21.518 8.46048C21.4264 8.4041 21.4123 8.36182 21.4616 8.27021C21.5665 8.10983 21.6607 7.94269 21.7435 7.76987C21.8069 7.65007 21.8633 7.66417 21.9619 7.72054L23.4418 8.60846C23.4841 8.63665 23.5475 8.6437 23.5475 8.72826Z" fill="white"/>
<path d="M27.3882 11.0255C27.2825 11.2016 27.1838 11.399 27.0711 11.5751C27.0288 11.6386 26.9654 11.5751 26.9231 11.547L25.408 10.6872C25.2952 10.6238 25.3093 10.5745 25.3586 10.4758C25.6335 9.92614 25.6335 9.92614 26.169 10.2433L27.2543 10.8916C27.3036 10.9268 27.3741 10.9409 27.3882 11.0255Z" fill="white"/>
<path d="M20.8203 23.3157H27.6559C27.8603 23.3157 27.9026 23.365 27.9026 23.5623C27.8932 25.0798 27.8932 26.5902 27.9026 28.0935C27.9026 28.2838 27.8462 28.3191 27.677 28.3191C23.0871 28.3144 18.4971 28.3144 13.9072 28.3191C13.7239 28.3191 13.6817 28.2697 13.6887 28.0935C13.6958 26.5714 13.6958 25.0563 13.6887 23.5341C13.6817 23.3509 13.738 23.3157 13.9142 23.3157H20.8203Z" fill="#474C5A"/>
<path d="M25.4008 22.5474C25.133 22.5474 24.8582 22.5404 24.5904 22.5474C24.4776 22.5474 24.4424 22.5192 24.4353 22.3994C24.4072 21.7793 24.4072 21.7793 25.0202 21.7793H26.19C26.3239 21.7793 26.3592 21.8145 26.3662 21.9555C26.3733 22.5545 26.3803 22.5545 25.7813 22.5545L25.4008 22.5474Z" fill="white"/>
</svg>
