<svg width="32" height="33" viewBox="0 0 32 33" fill="none" xmlns="http://www.w3.org/2000/svg">
<path d="M15.9212 9.29053C11.7418 9.29053 8.34131 12.6911 8.34131 16.8705C8.34131 21.05 11.7418 24.4505 15.9212 24.4505C20.1008 24.4505 23.5013 21.05 23.5013 16.8705C23.5013 12.6911 20.1008 9.29053 15.9212 9.29053ZM19.7993 12.1219C19.8844 12.0271 20.0047 11.9711 20.1323 11.966C20.2425 11.9535 20.384 12.0072 20.4765 12.0951C21.4592 13.0256 22.1273 14.2099 22.4066 15.5202C22.4512 15.7292 22.3503 15.9421 22.1606 16.0401C21.697 16.2797 21.1464 16.3958 20.619 16.3958C19.9315 16.3958 19.2801 16.1988 18.9027 15.8212C18.0995 15.0186 18.4344 13.6358 19.7993 12.1219ZM12.0435 21.6931C11.9583 21.788 11.8381 21.8444 11.7104 21.8495C11.7048 21.8499 11.6984 21.8499 11.6918 21.8499C11.5706 21.8499 11.454 21.8037 11.3661 21.7204C10.3835 20.79 9.71539 19.6057 9.43599 18.295C9.39157 18.0858 9.49244 17.8731 9.68212 17.775C10.7499 17.224 12.2729 17.3267 12.9401 17.9938C13.7423 18.7965 13.4073 20.1794 12.0435 21.6931ZM12.94 15.8212C12.5626 16.1988 11.9111 16.3959 11.2237 16.3959C10.6962 16.3959 10.1466 16.2797 9.68209 16.0401C9.4924 15.9421 9.39153 15.7292 9.43594 15.5202C9.71539 14.2099 10.3834 13.0256 11.3661 12.0951C11.4586 12.0072 11.5946 11.9526 11.7104 11.9661C11.8379 11.9712 11.9582 12.0271 12.0434 12.1219C13.4082 13.6358 13.7432 15.0186 12.94 15.8212ZM17.9403 23.1879C17.2843 23.3971 16.6051 23.5031 15.9212 23.5031C15.2375 23.5031 14.5583 23.3971 13.9024 23.1879C13.6941 23.1214 13.5581 22.9215 13.573 22.7036C13.6914 20.9987 14.7009 19.7131 15.9212 19.7131C17.1417 19.7131 18.1512 20.9987 18.2697 22.7035C18.2845 22.9215 18.1485 23.1214 17.9403 23.1879ZM14.0264 16.8705C14.0264 15.8254 14.8767 14.9756 15.9212 14.9756C16.966 14.9756 17.8163 15.8254 17.8163 16.8705C17.8163 17.9157 16.966 18.7655 15.9212 18.7655C14.8767 18.7655 14.0264 17.9157 14.0264 16.8705ZM18.2697 11.0749C18.1512 12.7794 17.1417 14.065 15.9212 14.065C14.7009 14.065 13.6914 12.7794 13.573 11.0749C13.5581 10.8571 13.6932 10.6572 13.9015 10.591C15.2136 10.1718 16.6292 10.1718 17.9412 10.591C18.1494 10.6572 18.2845 10.8571 18.2697 11.0749ZM22.4066 18.2196C22.1273 19.5303 21.4592 20.7146 20.4765 21.6451C20.3887 21.7283 20.272 21.7746 20.1509 21.7746C20.1444 21.7746 20.1378 21.7746 20.1323 21.7742C20.0047 21.7691 19.8844 21.713 19.7993 21.6183C18.4344 20.1045 18.0995 18.7212 18.9027 17.9185C19.5697 17.2508 21.0919 17.1495 22.1606 17.6996C22.3503 17.7977 22.4512 18.0106 22.4066 18.2196Z" fill="#474C5A"/>
<path d="M15.9218 5.5C9.65195 5.5 4.55176 10.6007 4.55176 16.8699C4.55176 23.1393 9.65195 28.24 15.9218 28.24C22.1916 28.24 27.2917 23.1393 27.2917 16.8699C27.2917 10.6007 22.1916 5.5 15.9218 5.5ZM15.9218 25.3974C11.2194 25.3974 7.39426 21.5718 7.39426 16.8699C7.39426 12.1681 11.2194 8.34251 15.9218 8.34251C20.6241 8.34251 24.4493 12.1681 24.4493 16.8699C24.4493 21.5718 20.6241 25.3974 15.9218 25.3974Z" fill="#474C5A"/>
</svg>
